<?xml version="1.0" encoding="utf-8"?>
<!-- Generator: Adobe Illustrator 27.9.0, SVG Export Plug-In . SVG Version: 6.00 Build 0)  -->
<svg version="1.1" id="Capa_2" xmlns="http://www.w3.org/2000/svg" xmlns:xlink="http://www.w3.org/1999/xlink" x="0px" y="0px"
	 viewBox="0 0 137 112" style="enable-background:new 0 0 137 112;" xml:space="preserve">
<style type="text/css">
	.st0{fill:none;}
	.st1{clip-path:url(#SVGID_00000034074853953085200880000006128936354898212793_);}
	.st2{fill:url(#SVGID_00000088104454560507459200000001722008701534776997_);}
	.st3{fill:#EFAF2A;}
</style>
<rect x="6.9" y="5.5" class="st0" width="124" height="97.9"/>
<g id="Capa_1-2">
	<g>
		<defs>
			<path id="SVGID_1_" d="M112.1,77.1c-3.1,4.8-7,9-11.4,12.4c-4.5,3.4-9.5,6.1-14.8,7.9c-5.3,1.8-10.8,2.8-16.4,2.9
				c-5.6-0.1-11.2-1.1-16.5-2.9c-5.3-1.8-10.3-4.5-14.8-7.9c-4.5-3.4-8.4-7.6-11.4-12.4c-3.1-4.8-5.3-10.2-6.5-15.8
				c0.6,5.8,2.4,11.4,5.3,16.5c2.9,5.1,6.7,9.7,11.3,13.5c4.5,3.8,9.8,6.7,15.3,8.7c5.5,2,11.3,3,17.1,3.2c0,0,0.1,0,0.1,0h0.2
				c0.1,0,0.1,0,0.2,0c5.8-0.2,11.6-1.2,17.1-3.2c5.6-2,10.8-5,15.3-8.7c4.5-3.8,8.4-8.3,11.3-13.5c2.8-5.1,4.7-10.8,5.3-16.5
				C117.3,67,115.2,72.4,112.1,77.1 M127,55.4C127,55.4,127,55.4,127,55.4C127,55.4,127,55.4,127,55.4C127,55.4,127,55.4,127,55.4
				 M127,55.3C127,55.3,127,55.3,127,55.3C127,55.3,127,55.3,127,55.3C127,55.3,127,55.3,127,55.3 M127.1,55.3
				C127.1,55.3,127.1,55.3,127.1,55.3L127.1,55.3C127.1,55.3,127.1,55.3,127.1,55.3C127.1,55.3,127.1,55.3,127.1,55.3L127.1,55.3
				C127.1,55.3,127.1,55.3,127.1,55.3C127.1,55.3,127.1,55.3,127.1,55.3L127.1,55.3C127.1,55.3,127,55.3,127.1,55.3
				C127.1,55.3,127.1,55.3,127.1,55.3C127.1,55.3,127.1,55.3,127.1,55.3C127.1,55.3,127.1,55.3,127.1,55.3 M127.2,55.2
				C127.3,55.2,127.3,55.2,127.2,55.2C127.2,55.2,127.2,55.2,127.2,55.2C127.2,55.2,127.2,55.2,127.2,55.2L127.2,55.2L127.2,55.2
				C127.5,55.2,127.4,55.2,127.2,55.2 M126.4,55.1C126.5,55.1,126.5,55.1,126.4,55.1C126.5,55.1,126.5,55.1,126.4,55.1 M126.3,55
				C126.3,55,126.4,55,126.3,55C126.4,55.1,126.4,55,126.3,55 M122,41.9c-0.7,0-1.6,0.3-1.9,0.9c-0.4,0.8-0.9,1.5-1.4,2.3
				c-0.2,0.4-0.5,0.7-0.8,1.1c0,0,0,0-0.1,0.1c-0.1,0.1-0.1,0.1-0.2,0.2c-0.1,0.2-0.3,0.4-0.5,0.5c-0.6,0.7-1.2,1.3-1.8,1.9
				c-0.2,0.1-0.3,0.3-0.5,0.4c0,0,0,0,0,0c-0.1,0.1-0.2,0.1-0.3,0.2c-0.2,0.2-0.5,0.4-0.8,0.5c-0.2,0.1-0.5,0.3-0.9,0.3
				c-0.5,0.1-0.9-0.6-0.8-1.5c0.2-2.2,0.9-3.6,1-4.3c0.2-0.9-3.3-2.4-3.9-0.9c-0.3,0.8-0.6,2.2-0.8,3.9c-0.1,0.8-0.1,1.5-0.1,2.3
				c-0.5,0.3-1,0.5-1.5,0.4c-0.8-0.1-1-0.8-0.9-1.7c0.2-1.9,0.6-3.4,0.7-4.5c0.1-0.9-3.1-2.4-3.7-1c-0.2,0.4-0.7,2.8-0.8,4.2
				c-0.2,2.7,0.3,5.2,2.9,5.4c1,0.1,2.6-0.5,3.5-1.2c0.3,1.1,1.2,1.7,2.5,1.7c1.1,0,2.2-0.3,3.1-0.9c1.6-0.9,3.9-2.8,5.7-4.9
				c0.1,0.8,0.1,1.6,0.3,2.5c-0.3-0.2-0.5-0.4-0.9-0.4c-0.2,0-0.4,0.2-0.5,0.4c-0.1,0.2-0.2,0.4-0.3,0.7c0,0.4,0.1,0.7,0.4,1
				c0.2,0.2,0.4,0.3,0.6,0.3c0.2,0,0.4,0,0.6,0c0.1,0,0.2,0,0.3,0c0,0,0,0,0.1,0c0,0.1,0,0.2,0.1,0.3c0.1,0.7,0.3,1.4,0.6,2
				c0.3,0.7,0.8,1.3,1.3,1.8c0.6,0.5,1.2,0.9,2,1.1c1,0.3,2,0.3,2.9,0.1c1.1-0.2,2-0.8,2.6-1.7c0.4-0.6,0.6-1.4,0.4-2.1
				c-0.2-0.7-1.3-0.7-1.9-0.5c-0.4,0.1-0.8,0.3-1.1,0.6c-0.2,0.2-0.4,0.5-0.3,0.8c0,0.1,0.1,0.2,0.1,0.3c0,0.1,0,0.3-0.1,0.4
				c0,0.1-0.1,0.2-0.1,0.3c0,0,0,0,0,0c0,0,0,0,0,0c0,0,0,0,0,0h0c0,0,0,0,0,0l0,0c0,0,0,0,0,0c0,0,0,0-0.1,0c0,0,0,0-0.1,0
				c-0.1,0-0.1,0-0.2,0c-0.1,0-0.2-0.1-0.3-0.1c0,0,0,0-0.1,0c-0.4-0.2-0.7-0.4-1-0.6c-0.3-0.3-0.6-0.6-0.8-1
				c-0.3-0.5-0.4-1.1-0.5-1.7c-0.1-0.7-0.3-1.3-0.4-2c-0.2-1.3-0.3-2.6-0.4-4c0-1,0-2,0-3C123.3,42.1,122.6,41.8,122,41.9
				C122.1,41.8,122.1,41.8,122,41.9 M93.9,56.7c-0.4-0.2-0.6-0.6-0.5-0.9c0.5-1.5,2.5-2.1,3.4-1.9c0,0,0.1,0.1,0,0.1
				c-0.4,1-1.1,2.8-2.3,2.8C94.3,56.8,94.1,56.8,93.9,56.7 M93.3,47c0.1-2.1,1.6-2.8,2.5-3c0.7-0.1,1.5,0.2,1.7,0.6
				c0,0.4-0.1,0.8-0.2,1.2c-0.3,1.3-1.2,2.6-2.1,2.9c-0.1,0.1-0.3,0.1-0.4,0.1C94,48.8,93.3,48.2,93.3,47 M71.7,40.9
				c-3.2,0.2-5.8,3.1-5.6,6.3c0,0.1,0,0.3,0,0.4c-0.5,0.7-1.2,1.3-1.9,1.4c-0.7,0.1-1.2-0.6-0.9-1.7c0.6-2.2,1.1-3,1.1-3.5
				c0-2.1-3.1-2.9-4.5-1.6c-0.6,0.6-1.6,2.1-2.6,4.4c-0.2,0.5-0.5,0.9-0.4,0c0.2-1.6,0.4-1.9,0.5-2.7c0.1-1,0.1-1.3-0.7-1.7
				c-1.3-0.6-2-0.6-2.3,0.6c-0.3,1.2-0.7,3.7-0.3,6.4c0,0,0,0,0,0.1c0.4,2,1.2,2.5,2.3,2.5c1.9,0,4.1-4.4,4.6-6.4
				c0-0.1,0.2-0.1,0.1,0c-0.4,1.8-0.7,3.2-0.5,4.3c0.2,1,1,1.9,3,1.8c1,0,2.3-0.8,3.3-1.8c0.8,1.2,2.3,1.8,4.3,1.7
				c1.7-0.1,3.6-1.1,5-2.5c0,0.1,0,0.2,0.1,0.3c0.4,1.5,2,2.3,4,2.4c1.7,0,3.1-0.9,4.3-2.3c0.1,0,0.1,0,0.2,0
				c0.2,1.2,0.8,2.3,2.4,2.3c1.3,0,2.6-0.8,3.6-1.9c0,0,0.1,0,0.1,0c0.5,1.2,1.6,2.1,3.1,2.2c1.1,0.1,2-0.4,2.9-1.3
				c0,0,0.1,0,0.1,0.1c0,0.5,0,0.7,0,1.3c0,0,0,0.1-0.1,0.1c-1.2,0-5.4,0.9-5.5,4.4c-0.1,1.4,1.7,3,3.7,2.5c3.8-1,4.9-5.1,5.4-8.2
				c0.7-3.7,1.2-6,1.2-6.3c0.1-0.5,0.1-0.6,0.1-0.8c0.1-1-0.9-1.5-2.2-1.6c-0.7,0-1.4,0.1-1.7,0.7c-0.7-0.4-1.7-0.7-2.5-0.8
				c-2.6-0.4-4.7,3.2-4.9,5.8c0,0,0,0,0,0c-0.3,0.6-0.9,1.2-1.8,1.1c-0.8-0.1-1-1-0.8-1.6c0.6-2.4,0.7-3.4,0.8-4.4
				c0.1-1.5-3.6-2.3-4-0.9c-0.1,0.6-0.2,1.8-0.3,2.4c0,0.4-0.1,0.7-0.1,1c-0.3,1.3-1.4,3.2-3.1,3.2c-0.9,0-1.7-0.6-1.7-1.7
				c0-1.6,1.2-3,2.9-3c0.2,0,0.3,0,0.5,0c0.4,0,0.8,0.2,1,0c0.2-0.2,0.2-1,0.1-1.2c0-0.2-0.2-0.7-0.8-0.9c-0.3-0.1-1.2-0.2-1.7-0.2
				c-2.6,0-4.8,2.1-5.3,4.5L75.9,46c-0.6,0.6-2.4,2.3-3.8,2.5c-2.1,0.3-3.2-0.7-2.8-2.2c0.4-1.8,2-3,2.7-3c0.3,0,0.4,0.1,0.3,0.2
				c-0.1,0.2-0.4,0.8-0.6,1.2c-0.2,0.6,0,1.2,1,1.2c1.1,0,2-1.8,2-2.7c0-1.2-1.1-2.4-2.8-2.4C71.9,40.9,71.8,40.9,71.7,40.9
				 M31.6,51.7L31.6,51.7C31.6,51.7,31.6,51.7,31.6,51.7C31.6,51.7,31.6,51.7,31.6,51.7 M31.5,51.7L31.5,51.7
				C31.5,51.7,31.6,51.7,31.5,51.7C31.6,51.7,31.6,51.7,31.5,51.7C31.5,51.7,31.5,51.7,31.5,51.7 M31.5,51.7
				C31.5,51.7,31.5,51.7,31.5,51.7L31.5,51.7C31.5,51.7,31.5,51.7,31.5,51.7 M46.6,47.3C46.5,45.5,47.1,44,48,44
				c0.8,0,1.6,1.4,1.7,3.1s-0.5,3.2-1.4,3.3h0C47.4,50.4,46.7,49,46.6,47.3 M26,36.2c-0.3,0.1-0.7,0.1-1,0.3c-0.3,0.1-0.8,0.4-1,0.7
				c-1.9,3.3-3.4,6.7-5,10.1c-0.4,1-0.9,1.9-1.3,2.8c-1.8,3.7-3.7,7.3-6.1,10.6c-0.6,0.9-1.3,1.7-2.1,2.5c-0.7,0.7-1.4,1.5-2.2,2.1
				c-0.2,0.2-0.5,0.5-0.4,0.8c0.1,0.3,0.5,0.5,0.7,0.5c0.9,0.2,2-0.1,2.7-0.7c2.8-2.5,5.2-5.5,7.1-8.7c1.7-2.8,3.1-5.7,4.5-8.6
				c0.1,0,0.1,0,0.2,0c0.3,0,0.7,0,1.1-0.1c0.5-0.2,1.1-0.6,1.4-0.9c0.2-0.3,0.3-0.5,0.3-0.8c0-0.2,0-0.4-0.3-0.6
				c-0.4-0.2-1,0-1.6,0.2c0.6-1.4,1.3-2.7,1.9-4.1c0.3,1.5,0.7,3.1,1,4.6c0.3,1.5,0.6,3,1,4.5c0.1,0.3,0.2,0.6,0.3,0.9
				c0.2,0.4,0.5,0.7,0.9,1c0.8,0.5,1.9,0.5,2.7,0.4c1.2-0.2,2.5-0.7,3.4-1.6c0.9,0.8,2.3,1.3,4,1c1.8-0.2,3.7-1.4,5-2.9l0.1-0.1h0.1
				c0.2,0.5,0.6,1,1.1,1.4c1.3,1.1,2.7,1,3.7,0.9c1.7-0.1,3.7-1.6,4.4-2.6c0.8-1.1,1-2.5,0.8-4.3c-0.1-0.9-0.5-1.8-1.1-2.5
				c-0.3-0.3-0.6-0.5-0.9-0.7c-0.7-0.3-1.3-0.4-2-0.4c-0.1,0-0.2,0-0.3,0c-0.2-0.1-0.3-0.1-0.4-0.1c-0.5,0-1.1,0-1.6,0.2
				c-0.5,0.1-1,0.3-1.5,0.6c-1.4,1-2.2,2.7-2.5,4.4c0,0,0,0,0,0l0-0.1l-0.4,0.4c-0.6,0.7-2.3,2.4-3.6,2.7c-2.1,0.4-3.1-0.6-2.9-2
				c0.3-1.8,1.9-3.1,2.5-3.2c0.3-0.1,0.4,0.1,0.3,0.2c-0.1,0.2-0.4,0.8-0.5,1.3c-0.2,0.6,0,1.2,1.1,1.1c1.1-0.1,1.9-1.9,1.9-2.8
				c-0.1-1.3-1.3-2.4-3.1-2.2c-3.1,0.4-5.6,3.5-5.3,6.6c0,0.1,0,0.3,0.1,0.4c-0.3,0.1-0.5,0.2-0.8,0.3c-0.3,0.2-0.6,0.4-0.7,0.8
				c0,0.2-0.1,0.3-0.1,0.4c-0.1,0.1-0.1,0.2-0.2,0.3c-0.1-0.1-0.2-0.2-0.3-0.3c-0.1-0.3-0.2-0.6-0.3-1c-0.1-0.5-0.2-1-0.3-1.4
				c-0.2-1-0.4-2-0.7-3c-0.4-1.9-0.9-3.9-1.3-5.8c-0.2-1.1-0.5-2.2-0.7-3.3c-0.1-0.3-0.3-0.4-0.6-0.5c-0.2-0.1-0.4-0.1-0.7-0.1
				C26.3,36.2,26.2,36.2,26,36.2 M60.4,27.3c-0.1,0.1-0.1,0.1,0,0.2c0.6,0.5,1.1,1.1,1.7,1.5c0.7,0.6,1.5,0.7,2.4,0.4
				c0.5-0.2,0.6-0.4,0.4-0.9c-0.4-1.1-1.3-1.7-2.5-1.7c0,0-0.1,0-0.1,0C61.6,26.7,61,27,60.4,27.3 M72.4,25.7
				c-1.2,0.9-2.3,1.8-3.5,2.7c-1.3,1-2.6,2-4,2.7c-0.4,0.2-0.8,0.4-1.3,0.3c-0.4-0.1-0.8-0.2-1.2-0.4c-0.8-0.4-1.4-0.9-2.1-1.4
				c-0.5-0.3-0.9-0.5-1.5-0.3c-0.6,0.2-1.1,0.5-1.6,0.8c-1.9,1.5-3.9,3-6,4.3c-0.4,0.2-0.7,0.5-1,0.9c-0.2,0.3-0.3,0.6-0.1,0.9
				c0.2,0.3,0.3,0.3,0.6,0.1c0.1-0.1,0.3-0.2,0.4-0.4c0.6-0.7,1.3-1.2,2-1.7c1.5-0.9,3-1.9,4.4-2.9c0.4-0.3,0.8-0.6,1.2-0.8
				s0.8-0.1,1,0.3c0.2,0.4,0.3,0.7,0.3,1.1c0,0.8-0.2,1.6-0.5,2.4c-0.1,0.4-0.3,0.7-0.3,1.1c0,0.2,0,0.4,0.2,0.5
				c0.2,0.1,0.3,0,0.5-0.2c1.1-1.1,2.4-1.8,3.8-2.6c1.2-0.7,2.5-1.3,3.6-2.2c1.7-1.3,3.5-2.5,5.3-3.6c0.4-0.2,0.8-0.6,1.3-0.5
				c0.3,0,0.5,0.1,0.8,0.3c0.4,0.3,0.6,0.8,0.8,1.2c0.2,0.5,0.2,1-0.1,1.5c-0.2,0.3-0.4,0.6-0.6,0.8c-0.4,0.5-0.8,1.1-1.1,1.6
				c-0.3,0.6-0.4,1.1,0,1.5c0.3,0.3,0.7,0.6,1.1,0.8c1.2,0.5,2.4,0.7,3.7,0.9c0.9,0.1,1.9,0.2,2.8,0.1c1.8,0,3.6,0.1,5.4,0.5
				c0.3,0.1,0.7,0.1,1,0c0.4-0.1,0.5-0.3,0.2-0.6c-0.3-0.3-0.7-0.6-1.1-0.9c-1.6-1.2-3.3-2.3-4.9-3.5c-1.4-1.1-2.7-2.2-4-3.3
				c-0.9-0.8-1.9-1.6-2.8-2.3c-0.4-0.3-0.8-0.4-1.1-0.4C73.2,25.2,72.8,25.4,72.4,25.7 M67.5,23.7c-0.3,0.3-0.6,0.6-0.9,0.9
				c-0.5,0.4-0.9,0.8-1.3,1.4c-0.5,0.9-0.4,1.7,0,2.5c0.1,0.2,0.2,0.3,0.5,0.3c1.1-0.2,2.6-1.4,2.4-3c0.1-0.7-0.2-1.4-0.5-2
				c0-0.1-0.1-0.2-0.1-0.2C67.6,23.6,67.6,23.7,67.5,23.7 M69.4,5.6h-0.2h0c-0.1,0-0.1,0-0.1,0c-4,0.1-8,0.6-11.8,1.6
				c-4,1-7.8,2.5-11.4,4.4c-3.6,1.9-6.9,4.3-9.9,7c-3,2.8-5.6,5.8-7.7,9.3c2.6-3,5.4-5.8,8.6-8.2c3.1-2.4,6.5-4.4,10-6.1
				c3.5-1.6,7.2-2.9,11-3.8c3.8-0.9,7.6-1.3,11.5-1.4c3.8,0.1,7.7,0.5,11.4,1.4c3.8,0.8,7.5,2.2,11,3.8c3.5,1.7,6.9,3.7,10,6.1
				c3.1,2.4,6,5.2,8.6,8.2c-2.1-3.4-4.7-6.5-7.7-9.3c-3-2.7-6.3-5.1-9.9-7c-3.6-1.9-7.4-3.4-11.4-4.4c-3.9-1-7.8-1.5-11.8-1.6
				C69.6,5.6,69.5,5.6,69.4,5.6L69.4,5.6"/>
		</defs>
		<clipPath id="SVGID_00000052079538236836684840000005586123652172849320_">
			<use xlink:href="#SVGID_1_"  style="overflow:visible;"/>
		</clipPath>
		<g style="clip-path:url(#SVGID_00000052079538236836684840000005586123652172849320_);">
			
				<linearGradient id="SVGID_00000067216609316766870110000003067445732153909151_" gradientUnits="userSpaceOnUse" x1="-1052.9043" y1="1075.1276" x2="-1051.5428" y2="1075.1276" gradientTransform="matrix(-35.965 -62.2932 62.2932 -35.965 -104746.4219 -26822.998)">
				<stop  offset="0" style="stop-color:#96BB43"/>
				<stop  offset="1" style="stop-color:#2D9F4A"/>
			</linearGradient>
			<polygon style="fill:url(#SVGID_00000067216609316766870110000003067445732153909151_);" points="-35.4,30 99.8,-48.1 173,78.8 
				37.8,156.9 			"/>
		</g>
	</g>
	<path class="st3" d="M47.8,69.5v-3.2c0,0,0,0,0,0h3.7c0.1,0,0.2-0.1,0.2-0.2V64c0-0.1-0.1-0.2-0.2-0.2h-3.7c0,0,0,0,0,0v-1.6
		c0,0,0,0,0,0c0,0,0,0,0,0h4.3c0.1,0,0.2-0.1,0.2-0.2v-2.1c0-0.1-0.1-0.2-0.2-0.2h-7.1c-0.1,0-0.2,0.1-0.2,0.2v9.8
		c0,0.1,0.1,0.2,0.2,0.2h2.5C47.7,69.8,47.8,69.6,47.8,69.5"/>
	<path class="st3" d="M55.4,69.2c0.8,0.4,1.7,0.7,2.7,0.7c1,0,1.9-0.2,2.7-0.7c0.8-0.5,1.4-1.1,1.9-1.9c0.5-0.8,0.7-1.7,0.7-2.7
		c0-1-0.2-1.9-0.7-2.7c-0.5-0.8-1.1-1.4-1.9-1.9c-0.8-0.5-1.7-0.7-2.7-0.7s-1.9,0.2-2.7,0.7c-0.8,0.5-1.4,1.1-1.9,1.9
		c-0.4,0.8-0.7,1.7-0.7,2.7c0,1,0.2,1.9,0.7,2.7S54.7,68.8,55.4,69.2 M56,63.3c0.2-0.4,0.5-0.7,0.9-0.9c0.4-0.2,0.8-0.3,1.2-0.3
		c0.5,0,0.9,0.1,1.2,0.3c0.4,0.2,0.6,0.5,0.9,0.9c0.2,0.4,0.3,0.9,0.3,1.4c0,0.5-0.1,1-0.3,1.4c-0.2,0.4-0.5,0.7-0.9,0.9
		c-0.4,0.2-0.8,0.3-1.2,0.3s-0.9-0.1-1.2-0.3c-0.4-0.2-0.6-0.5-0.9-0.9c-0.2-0.4-0.3-0.9-0.3-1.4S55.8,63.7,56,63.3"/>
	<path class="st3" d="M66.2,69.2c0.8,0.4,1.7,0.7,2.7,0.7s1.9-0.2,2.7-0.7c0.8-0.5,1.4-1.1,1.9-1.9c0.5-0.8,0.7-1.7,0.7-2.7
		c0-1-0.2-1.9-0.7-2.7c-0.5-0.8-1.1-1.4-1.9-1.9c-0.8-0.5-1.7-0.7-2.7-0.7S67,59.6,66.2,60c-0.8,0.5-1.4,1.1-1.9,1.9
		c-0.4,0.8-0.7,1.7-0.7,2.7c0,1,0.2,1.9,0.7,2.7C64.8,68.1,65.4,68.8,66.2,69.2 M66.8,63.3c0.2-0.4,0.5-0.7,0.9-0.9
		c0.4-0.2,0.8-0.3,1.2-0.3s0.9,0.1,1.2,0.3c0.4,0.2,0.6,0.5,0.9,0.9c0.2,0.4,0.3,0.9,0.3,1.4c0,0.5-0.1,1-0.3,1.4
		c-0.2,0.4-0.5,0.7-0.9,0.9c-0.4,0.2-0.8,0.3-1.2,0.3c-0.5,0-0.9-0.1-1.2-0.3c-0.4-0.2-0.6-0.5-0.9-0.9c-0.2-0.4-0.3-0.9-0.3-1.4
		S66.6,63.7,66.8,63.3"/>
	<path class="st3" d="M74.9,69.8H78c1.1,0,2.1-0.2,2.9-0.6c0.8-0.4,1.5-1,2-1.8c0.5-0.8,0.7-1.7,0.7-2.7s-0.2-1.9-0.7-2.7
		c-0.5-0.8-1.1-1.4-2-1.8C80,59.7,79,59.5,78,59.5h-3.1c-0.2,0-0.4,0.2-0.4,0.4v9.4C74.5,69.6,74.7,69.7,74.9,69.8 M77.6,62.1h0.2
		c0.8,0,1.5,0.2,2,0.7c0.5,0.5,0.7,1.1,0.7,1.9c0,0.8-0.2,1.4-0.7,1.9c-0.5,0.5-1.1,0.7-2,0.7h-0.2c-0.1,0-0.2-0.1-0.2-0.2v-4.7
		C77.4,62.2,77.5,62.1,77.6,62.1"/>
	<path class="st3" d="M90,63.9c-0.4-0.2-1-0.4-1.7-0.5c-0.6-0.1-1.1-0.3-1.4-0.4c-0.2-0.1-0.3-0.2-0.3-0.4c0-0.2,0.1-0.3,0.3-0.5
		c0.2-0.2,0.6-0.2,1.1-0.2c0.7,0,1.5,0.2,2.3,0.7c0.1,0.1,0.2,0.1,0.3,0c0.1,0,0.2-0.1,0.2-0.2l0.7-1.9c0-0.1,0-0.1,0-0.1l-0.2-0.1
		c-0.4-0.3-0.9-0.5-1.5-0.7c-0.6-0.2-1.2-0.2-1.7-0.2c-0.9,0-1.6,0.1-2.2,0.4c-0.6,0.3-1.1,0.7-1.4,1.2c-0.3,0.5-0.5,1.1-0.5,1.7
		c0,0.7,0.2,1.3,0.5,1.8c0.3,0.4,0.8,0.7,1.3,0.9c0.4,0.2,1,0.4,1.7,0.5c0.4,0.1,0.8,0.2,1,0.3c0.2,0.1,0.4,0.2,0.5,0.3
		c0.1,0.1,0.1,0.2,0.1,0.4c0,0.1-0.1,0.2-0.2,0.3c-0.2,0.1-0.6,0.2-1.1,0.2c-0.5,0-1-0.1-1.4-0.3c-0.5-0.2-0.9-0.4-1.2-0.7
		c-0.1-0.1-0.2-0.1-0.3-0.1c-0.1,0-0.2,0.1-0.2,0.2l-0.8,1.8c0,0.1,0,0.1,0,0.1l0.2,0.1c0.4,0.4,1,0.6,1.7,0.9
		c0.7,0.2,1.4,0.3,2.1,0.3c0.9,0,1.6-0.1,2.2-0.4c0.6-0.3,1.1-0.7,1.4-1.2c0.3-0.5,0.5-1.1,0.5-1.7c0-0.7-0.2-1.3-0.6-1.8
		C90.9,64.4,90.5,64.1,90,63.9"/>
</g>
</svg>
